<?xml version="1.0" encoding="utf-8"?>
<!-- Generator: Adobe Illustrator 25.0.0, SVG Export Plug-In . SVG Version: 6.00 Build 0)  -->
<svg version="1.1" id="Layer_1" xmlns="http://www.w3.org/2000/svg" xmlns:xlink="http://www.w3.org/1999/xlink" x="0px" y="0px"
	 viewBox="0 0 595.3 108.6" style="enable-background:new 0 0 595.3 108.6;" xml:space="preserve">
<style type="text/css">
	.st0{fill:url(#path22_1_);}
	.st1{fill:#63378D;}
</style>
<linearGradient id="path22_1_" gradientUnits="userSpaceOnUse" x1="336.0114" y1="837.1547" x2="336.0114" y2="776.9777" gradientTransform="matrix(-1 0 0 1 623.0016 -745.6599)">
	<stop  offset="0" style="stop-color:#020203"/>
	<stop  offset="1" style="stop-color:#020203"/>
</linearGradient>
<path id="path22" class="st0" d="M550.1,53c-12.3-9.5-39-16.5-86.2-15.7c-47.2,0.9-125.2,14.5-194.3,24.3S90.1,85.6,48.5,91.4
	s-58.6-9.5-22.4-11.1S150.7,75.1,217.5,66c66.8-9,154.3-30.2,206.7-34.7c52.4-4.5,81.3-1.8,106.1,5.3c24.8,7.1,33.4,19.6,36.6,23.8
	S562.4,62.5,550.1,53z"/>
<path id="path24" class="st1" d="M564-1.9L35-3.7l-1.3,79.8c43-1.6,87.4-4.5,140.8-8.5c53.3-4,157.2-22.8,212.9-33
	s100.8-5.9,130.9-1.2c30.1,4.7,35.5,16.9,46.3,18.1L564-1.9z"/>
</svg>
