<?xml version="1.0" encoding="UTF-8"?>
<!DOCTYPE svg PUBLIC "-//W3C//DTD SVG 1.0//EN" "http://www.w3.org/TR/2001/REC-SVG-20010904/DTD/svg10.dtd">
<!-- Creator: CorelDRAW X7 -->
<svg xmlns="http://www.w3.org/2000/svg" xml:space="preserve" width="297mm" height="210mm" version="1.0" style="shape-rendering:geometricPrecision; text-rendering:geometricPrecision; image-rendering:optimizeQuality; fill-rule:evenodd; clip-rule:evenodd"
viewBox="0 0 29700 21000"
 xmlns:xlink="http://www.w3.org/1999/xlink">
 <defs>
  <style type="text/css">
   <![CDATA[
    .fil2 {fill:none}
    .fil1 {fill:white}
    .fil3 {fill:white;fill-rule:nonzero}
    .fil0 {fill:url(#id2)}
   ]]>
  </style>
  <mask id="id0">
  <linearGradient id="id1" gradientUnits="userSpaceOnUse" x1="27052.8" y1="6750.06" x2="26955.8" y2="-3126.14">
   <stop offset="0" style="stop-opacity:0.501961; stop-color:white"/>
   <stop offset="1" style="stop-opacity:0; stop-color:white"/>
  </linearGradient>
   <rect style="fill:url(#id1)" x="21780" y="-3076" width="10448" height="9775"/>
  </mask>
  <linearGradient id="id2" gradientUnits="userSpaceOnUse" x1="27049.6" y1="6746.81" x2="26958.9" y2="-3122.89">
   <stop offset="0" style="stop-opacity:1; stop-color:#BCE7E4"/>
   <stop offset="1" style="stop-opacity:1; stop-color:white"/>
  </linearGradient>
 </defs>
<symbol id="Fm0-20-0" viewBox="21781 -3075 10447 9775">
 <path class="fil0" style="mask:url(#id0)" d="M26165 6671l-1750 -1009 -2634 -5795c0,0 3041,-2942 5481,-2942 2441,0 4966,2235 4966,2235l-1657 5154 -4106 2347c0,0 -142,79 -300,10l0 0z"/>
</symbol>
 <g id="Layer_x0020_1">
  <metadata id="CorelCorpID_0Corel-Layer"/>
  <g id="_2340172740640">
   <g>
    <path class="fil1" d="M5410 12022l0 514 -52 0 0 -411 -202 346 -25 0 -202 -344 0 409 -52 0 0 -514 45 0 223 381 221 -381 44 0zm873 336l0 178 -54 0 0 -178 -205 -336 58 0 176 289 176 -289 54 0 -205 336zm867 182c-29,0 -57,-6 -81,-19 -25,-12 -46,-30 -61,-54l32 -37c28,42 65,64 111,64 63,0 95,-38 95,-114l0 -311 -188 0 0 -47 242 0 0 356c0,54 -13,95 -38,122 -25,27 -63,40 -112,40zm842 -518l54 0 0 514 -54 0 0 -514zm1180 0l0 514 -44 0 -331 -417 0 417 -54 0 0 -514 45 0 331 417 0 -417 53 0zm697 0l54 0 0 514 -54 0 0 -514zm0 0z"/>
    <path class="fil2" d="M7344 10830c-500,-71 -669,-252 -935,-541l209 -140 490 262 -124 -274 438 -10 206 650c84,265 699,-584 571,-706 -78,-74 -66,2 -545,38 0,0 54,198 116,222l-426 499z"/>
    <path class="fil1" d="M7336 10882c-258,-36 -432,-102 -576,-196 -143,-94 -254,-213 -390,-361l-42 -45 52 -35 208 -140 26 -18 29 15 352 188 -60 -131 -33 -73 81 -2 438 -10 40 -1 12 38 206 650c3,10 6,14 7,14 27,1 74,-31 128,-83 61,-58 127,-138 185,-222 111,-159 198,-327 163,-360 -21,-20 -33,-18 -89,-6 -63,14 -165,36 -348,53 17,51 43,116 65,125l-39 99c-87,-34 -148,-257 -148,-258l-17 -62 64 -5c218,-17 332,-41 400,-56 103,-22 123,-27 185,32 79,75 -11,300 -148,499 -62,90 -133,176 -200,239 -74,70 -147,114 -205,111 -49,-2 -86,-29 -104,-87l-195 -613 -317 8 91 200 -74 69 -462 -247 -131 88c112,121 210,220 328,298 132,86 354,166 595,200l-77 85zm0 0z"/>
    <path class="fil1" d="M7120 10040c84,-38 107,-58 138,-138 81,15 206,40 347,-10 0,0 18,103 128,125 0,0 -249,13 -613,23zm0 0z"/>
    <path class="fil1" d="M7605 9868c-103,37 -254,41 -357,0 1,-98 81,-177 179,-177 98,0 177,79 178,177zm0 0z"/>
    <path class="fil1" d="M8260 10167c-13,18 -67,-62 -85,-75 -18,-13 -122,-77 -110,-95 185,-66 278,-153 369,-190 89,-37 177,-40 255,-20 78,21 146,65 197,121 51,56 84,125 94,196 6,53 -1,124 -27,185 -22,53 -57,99 -107,124 -143,71 -247,16 -340,-34 -46,-24 -89,-47 -127,-46 -5,0 -10,0 -15,1 -13,3 -21,10 -26,17 -6,10 -8,22 -8,32 0,3 1,6 1,10 4,22 -10,42 -31,47 -22,4 -43,-10 -47,-32 -2,-7 -3,-15 -3,-24 0,-24 5,-51 20,-75 16,-25 41,-46 79,-53 8,-2 18,-3 29,-3 59,-1 111,26 166,56 76,40 160,86 266,32 31,-15 54,-47 69,-82 20,-49 27,-104 21,-145 -7,-54 -33,-108 -74,-153 -40,-45 -95,-80 -158,-96 -61,-16 -132,-14 -204,15 -77,32 -182,97 -204,287zm0 0z"/>
    <path class="fil1" d="M5918 10036c0,0 147,-59 653,40l-269 186c-348,-179 -483,-136 -484,-136l100 -90zm0 0z"/>
    <path class="fil1" d="M7841 11009l43 60c0,0 -257,118 -890,19l42 -67c460,66 712,16 805,-12zm0 0z"/>
    <path class="fil1" d="M7767 10916l36 51c0,0 -212,97 -734,16l36 -58c378,55 585,14 662,-9zm0 0z"/>
    <path class="fil1" d="M7483 9639c0,-64 -23,-120 -57,-148 -34,28 -56,84 -56,148 0,65 22,121 56,149 34,-28 57,-84 57,-149zm0 0z"/>
   </g>
   <path class="fil3" d="M5218 12994l0 256 29 0 0 -256 -29 0zm205 62c-35,1 -61,15 -74,44l0 -43 -29 0 0 193 29 0 0 -104c3,-37 27,-62 65,-62 34,0 54,20 54,54l0 112 28 0 0 -119c0,-47 -27,-75 -73,-75zm285 -78l0 121c-14,-27 -41,-43 -75,-43 -54,0 -92,40 -92,97 0,57 38,98 92,98 35,0 61,-16 75,-43l0 42 29 0 0 -272 -29 0zm-69 248c-41,0 -70,-30 -70,-72 0,-43 29,-73 70,-73 41,0 69,30 69,73 0,42 -28,72 -69,72zm183 -243c-11,0 -19,8 -19,19 0,11 8,20 19,20 11,0 19,-9 19,-20 0,-11 -8,-19 -19,-19zm-14 74l0 193 28 0 0 -193 -28 0zm245 193l0 -128c-1,-41 -27,-66 -75,-66 -33,0 -53,10 -78,26l12 20c20,-14 40,-22 61,-22 34,0 51,17 51,45l0 12 -63 0c-45,1 -72,22 -72,56 0,32 26,58 66,58 30,0 55,-11 70,-31l0 30 28 0zm-93 -23c-27,0 -44,-14 -44,-36 0,-21 17,-31 49,-31l60 0 0 23c-8,28 -32,44 -65,44zm144 -233l0 82 22 0 0 -82 -22 0zm180 101l11 -22c-16,-10 -38,-17 -61,-17 -35,0 -67,16 -67,52 0,68 108,44 107,91 -1,19 -19,28 -42,28 -22,0 -47,-9 -64,-24l-11 21c19,17 47,27 74,27 37,0 71,-17 71,-55 0,-69 -108,-47 -108,-90 0,-18 17,-26 38,-26 18,0 38,6 52,15zm281 -101l-103 0 0 256 102 0c76,0 133,-56 133,-128 0,-73 -57,-128 -132,-128zm1 228l-75 0 0 -201 74 0c57,0 102,43 102,101 0,57 -44,100 -101,100zm194 -239c-10,0 -18,8 -18,19 0,11 8,20 18,20 11,0 19,-9 19,-20 0,-11 -8,-19 -19,-19zm-14 74l0 193 28 0 0 -193 -28 0zm237 0l0 39c-14,-25 -39,-40 -72,-40 -51,1 -87,38 -87,92 0,55 36,93 88,93 33,0 57,-15 71,-40l0 29c0,41 -27,67 -69,67 -26,-1 -46,-9 -65,-25l-13 21c23,18 48,28 79,28 58,0 96,-35 96,-92l0 -172 -28 0zm-66 161c-38,0 -66,-29 -66,-69 0,-40 28,-69 66,-69 39,0 66,29 66,69 0,40 -27,69 -66,69zm173 -235c-11,0 -19,8 -19,19 0,11 8,20 19,20 11,0 19,-9 19,-20 0,-11 -8,-19 -19,-19zm-14 74l0 193 28 0 0 -193 -28 0zm189 157c-11,7 -21,10 -31,10 -16,0 -25,-9 -25,-33l0 -106 61 0 0 -22 -61 0 0 -50 -28 0 0 50 -28 0 0 22 28 0 0 111c0,38 20,55 49,55 15,0 30,-6 43,-15l-8 -22zm199 36l-1 -128c0,-41 -27,-66 -74,-66 -33,0 -54,10 -79,26l12 20c20,-14 40,-22 61,-22 34,0 52,17 52,45l0 12 -63 0c-46,1 -72,22 -72,56 0,32 25,58 65,58 31,0 55,-11 71,-31l0 30 28 0zm-93 -23c-27,0 -45,-14 -45,-36 0,-21 17,-31 49,-31l60 0 0 23c-7,28 -32,44 -64,44zm158 -249l0 272 28 0 0 -272 -28 0zm213 16l0 256 178 0 0 -28 -149 0 0 -89 129 0 0 -26 -129 0 0 -86 145 0 0 -27 -174 0zm368 110l16 -19c-17,-18 -43,-29 -74,-29 -56,0 -95,40 -95,97 0,58 39,98 95,98 33,0 60,-13 77,-34l-16 -16c-14,16 -35,24 -60,24 -40,0 -68,-29 -68,-72 0,-42 28,-71 68,-71 23,0 43,8 57,22zm140 -48c-57,0 -98,40 -98,97 0,57 41,98 98,98 57,0 98,-41 98,-98 0,-57 -41,-97 -98,-97zm0 25c40,0 69,30 69,72 0,44 -29,73 -69,73 -41,0 -69,-29 -69,-73 0,-42 28,-72 69,-72zm249 14l11 -22c-16,-10 -38,-17 -61,-17 -35,0 -67,16 -67,52 -1,68 107,44 106,91 0,19 -18,28 -41,28 -23,0 -48,-9 -64,-24l-11 21c18,17 46,27 74,27 37,0 70,-17 70,-55 0,-69 -107,-47 -107,-90 0,-18 16,-26 38,-26 18,0 37,6 52,15zm124 182l89 -220 -29 0 -61 160 -64 -160 -30 0 79 191 -8 18c-7,19 -20,28 -35,28 -9,0 -18,-3 -27,-9l-12 23c12,9 25,13 41,13 25,0 45,-15 57,-44zm223 -182l11 -22c-16,-10 -39,-17 -62,-17 -35,0 -66,16 -66,52 -1,68 107,44 106,91 -1,19 -19,28 -41,28 -23,0 -48,-9 -64,-24l-11 21c18,17 46,27 73,27 37,0 71,-17 71,-55 0,-69 -107,-47 -107,-90 0,-18 16,-26 38,-26 17,0 37,6 52,15zm155 119c-11,7 -21,10 -31,10 -16,0 -25,-9 -25,-33l0 -106 61 0 0 -22 -61 0 0 -50 -28 0 0 50 -28 0 0 22 28 0 0 111c0,38 21,55 49,55 15,0 30,-6 43,-15l-8 -22zm124 -158c-56,1 -95,40 -95,97 0,58 39,98 96,98 32,0 59,-12 77,-32l-16 -17c-15,16 -35,25 -59,25 -38,0 -65,-25 -70,-63l157 0c3,-65 -28,-108 -90,-108zm-67 85c4,-37 30,-61 67,-61 38,0 63,24 65,61l-132 0zm453 -85c-37,1 -64,17 -76,50 -8,-31 -33,-50 -69,-50 -35,1 -61,15 -74,45l0 -44 -28 0 0 193 28 0 0 -95c0,-42 24,-71 63,-72 34,0 54,21 54,55l0 112 29 0 0 -95c0,-42 23,-71 62,-72 34,0 54,21 54,55l0 112 28 0 0 -119c0,-47 -26,-75 -71,-75z"/>
  </g>
 </g>
</svg>
