<svg xmlns="http://www.w3.org/2000/svg" width="467.637" height="512" viewBox="0 0 467.637 512">
  <g id="Group_17" data-name="Group 17" transform="translate(-910 -3414)">
    <g id="discount" transform="translate(887.819 3414)">
      <g id="Group_16" data-name="Group 16">
        <path id="Path_67" data-name="Path 67" d="M256,512l-60.791-68.925-83.73,11.851L96.859,371.62,22.181,331.981,59.3,256,22.182,180.019,96.86,140.38l14.619-83.306,83.73,11.851L256,0l60.791,68.925,83.73-11.851L415.14,140.38l74.678,39.639L452.7,256l37.119,75.981L415.14,371.62l-14.619,83.306-83.73-11.851Z" fill="#ff5959"/>
      </g>
      <path id="Path_68" data-name="Path 68" d="M316.791,443.075l83.73,11.851,14.62-83.306,74.677-39.639L452.7,256l37.119-75.981L415.141,140.38l-14.62-83.306-83.73,11.851L256,0V512Z" fill="#e63a57"/>
    </g>
  </g>
</svg>
